/* XPM */
static char * reginatiny_lo_xpm[] = {
"16 16 33 1",
" 	c None",
".	c #020202",
"+	c #4F3515",
"@	c #7E4E1E",
"#	c #A2662A",
"$	c #C6923A",
"%	c #432D12",
"&	c #3A280F",
"*	c #DC8936",
"=	c #2E1D0C",
"-	c #C48B37",
";	c #9B752E",
">	c #6E421A",
",	c #1C1106",
"'	c #FAB446",
")	c #CD8032",
"!	c #DE983C",
"~	c #966426",
"{	c #160E06",
"]	c #B27A2E",
"^	c #68441A",
"/	c #E6923A",
"(	c #9A5E26",
"_	c #B5702D",
":	c #54401A",
"<	c #764F1F",
"[	c #0E0A02",
"}	c #8E5A22",
"|	c #E68E3A",
"1	c #F3973B",
"2	c #BD782F",
"3	c #855322",
"4	c #CE8836",
"       .@=      ",
"      .__3.     ",
"     .%*_2,     ",
"     ._<__<.    ",
"    .^!.}2-,    ",
"   .='%.()2<.   ",
"   .~-..3)3-.   ",
"  .%'{..>*}]&.  ",
"  .-<...+|2+-.  ",
" .34%&+::/*&/&. ",
" .<_4-;;;1*@_=. ",
"  .+_)_+,_|(2{  ",
"   .[>)|)11*@.  ",
"     .{3*11*=   ",
"       .&#)_.   ",
"        .[,.    "};
