/* XPM */
static char * regina_lo_xpm[] = {
"32 32 33 1",
" 	c None",
".	c #030303",
"+	c #271A14",
"@	c #208161",
"#	c #5D4232",
"$	c #1E7A5C",
"%	c #8D624A",
"&	c #1C7156",
"*	c #185C46",
"=	c #487E5E",
"-	c #BF8565",
";	c #2F6E53",
">	c #9D6D52",
",	c #0F3E2E",
"'	c #707055",
")	c #13281E",
"!	c #4B4333",
"~	c #6A4838",
"{	c #B17C5D",
"]	c #1F1510",
"^	c #897E5F",
"/	c #2A1E16",
"(	c #131511",
"_	c #DE9974",
":	c #160E0A",
"<	c #704F3B",
"[	c #37261E",
"}	c #A67457",
"|	c #100E0A",
"1	c #956A4E",
"2	c #463225",
"3	c #7D5742",
"4	c #D1916D",
"                ./.             ",
"               .#3#.            ",
"              .2%33:            ",
"              .1>%<#.           ",
"             .#}>%31|           ",
"            .]{}3331~.          ",
"            .%{}#1%%{+          ",
"           .[{-#|>%3>~.         ",
"           |}{-.:>13>4.         ",
"          .#-_#..}1%%_2.        ",
"          :{_%...31%>}}.        ",
"         .3_{)),*^11>3-#.       ",
"        .2{;&$@@@^>>1~1{.       ",
"        .%>!&$@@@=>>%[#-/.      ",
"       .#}~(&$$@@={}%!2}3.      ",
"      .]->+.)@@$;=}}13]<-+.     ",
"      .3_%...*@@@={}}>,2}%.     ",
"     .24-+...|@@@@{}}>@/3-:.    ",
"     .{42.....)@@@{}}1=*#>~.    ",
"    .#4>......(&$$^}}%'@231.    ",
"    |13<}-44->1%&$^{{1'$;<%[.   ",
"    ]31%33%%1%~<!!3}{}>*=<>].   ",
"     :#1>1%~[(....2{{}}<~%%.    ",
"      .+<>}>%3~[|.2{}{1<3>2.    ",
"       ..[%>}}1%<#2-}{1%1}].    ",
"         ..21}{}}13{{{>}}~.     ",
"           .]#1{{{{-}{}}}2.     ",
"            ../<>}-{{{}>>|      ",
"              ../<}{{{{1<.      ",
"                .:2%>>>3].      ",
"                 ..:2~~2.       ",
"                   .....        "};
