/* XPM */
static char * regina_xpm[] = {
"32 32 244 2",
"  	c None",
". 	c #2D1F17",
"+ 	c #463024",
"@ 	c #100B08",
"# 	c #201611",
"$ 	c #845B45",
"% 	c #78533F",
"& 	c #543A2C",
"* 	c #040302",
"= 	c #835B44",
"- 	c #92654C",
"; 	c #7F5843",
"> 	c #825A44",
", 	c #1D140F",
"' 	c #483226",
") 	c #AE795B",
"! 	c #996A50",
"~ 	c #855C45",
"{ 	c #7F5842",
"] 	c #694937",
"^ 	c #17100C",
"/ 	c #A47256",
"( 	c #A97558",
"_ 	c #96684F",
": 	c #895F48",
"< 	c #805843",
"[ 	c #9D6D52",
"} 	c #020101",
"| 	c #7A5440",
"1 	c #9B6C51",
"2 	c #664735",
"3 	c #8E624A",
"4 	c #835B45",
"5 	c #97694F",
"6 	c #79543F",
"7 	c #3E2B20",
"8 	c #B07A5C",
"9 	c #B67F60",
"0 	c #51382A",
"a 	c #412D22",
"b 	c #93664D",
"c 	c #8A6048",
"d 	c #8E634B",
"e 	c #C48867",
"f 	c #1A120D",
"g 	c #120D09",
"h 	c #A06F54",
"i 	c #C08565",
"j 	c #030201",
"k 	c #32231A",
"l 	c #986A50",
"m 	c #91654C",
"n 	c #8B6149",
"o 	c #B47D5E",
"p 	c #6D4C39",
"q 	c #C88B69",
"r 	c #D69570",
"s 	c #211711",
"t 	c #1E1510",
"u 	c #9F6E53",
"v 	c #8C6149",
"w 	c #18110D",
"x 	c #CC8E6B",
"y 	c #E7A079",
"z 	c #5C4030",
"A 	c #000000",
"B 	c #010504",
"C 	c #0A1610",
"D 	c #A27155",
"E 	c #9A6B51",
"F 	c #8D624A",
"G 	c #CA8C6A",
"H 	c #0C0806",
"I 	c #AA7B5D",
"J 	c #716F54",
"K 	c #124030",
"L 	c #155943",
"M 	c #1B7054",
"N 	c #1F7D5E",
"O 	c #9B775A",
"P 	c #6D4B39",
"Q 	c #C18665",
"R 	c #604332",
"S 	c #AD785B",
"T 	c #436A50",
"U 	c #1D785A",
"V 	c #1E7B5C",
"W 	c #1E7D5E",
"X 	c #1F7F60",
"Y 	c #208262",
"Z 	c #8D7B5D",
"` 	c #98694F",
" .	c #7B5641",
"..	c #422D22",
"+.	c #AB775A",
"@.	c #704E3B",
"#.	c #281C15",
"$.	c #885E47",
"%.	c #24392B",
"&.	c #1D7658",
"*.	c #1E7A5C",
"=.	c #1E7C5D",
"-.	c #1F7E5F",
";.	c #7E7C5E",
">.	c #A27055",
",.	c #9E6E53",
"'.	c #291D16",
").	c #75513D",
"!.	c #BE8464",
"~.	c #140E0B",
"{.	c #070504",
"].	c #AA7659",
"^.	c #3F2C21",
"/.	c #010101",
"(.	c #165B45",
"_.	c #1E7C5E",
":.	c #6D7D5E",
"<.	c #A57256",
"[.	c #A37155",
"}.	c #95674E",
"|.	c #313629",
"1.	c #4F372A",
"2.	c #AC775A",
"3.	c #573C2D",
"4.	c #94674E",
"5.	c #090605",
"6.	c #04100C",
"7.	c #1C7558",
"8.	c #208362",
"9.	c #1F8061",
"0.	c #5B7F60",
"a.	c #A67357",
"b.	c #5B6D52",
"c.	c #1F1D16",
"d.	c #BB8262",
"e.	c #120C09",
"f.	c #C58967",
"g.	c #3A281F",
"h.	c #0A2A20",
"i.	c #1F8060",
"j.	c #498262",
"k.	c #A87558",
"l.	c #9B6B51",
"m.	c #797356",
"n.	c #114332",
"o.	c #593E2F",
"p.	c #A77457",
"q.	c #6A4A38",
"r.	c #030202",
"s.	c #D1916E",
"t.	c #714E3B",
"u.	c #020201",
"v.	c #124C39",
"w.	c #367F60",
"x.	c #B17B5D",
"y.	c #A97659",
"z.	c #A17054",
"A.	c #936E53",
"B.	c #1E785A",
"C.	c #22261D",
"D.	c #B77F60",
"E.	c #110C09",
"F.	c #463025",
"G.	c #CD8F6C",
"H.	c #150F0B",
"I.	c #19110D",
"J.	c #1A120E",
"K.	c #191712",
"L.	c #226F53",
"M.	c #237C5D",
"N.	c #B37D5E",
"O.	c #AB7659",
"P.	c #A67457",
"Q.	c #327356",
"R.	c #1C5F47",
"S.	c #5D4131",
"T.	c #815A44",
"U.	c #6E4C39",
"V.	c #91644C",
"W.	c #B88060",
"X.	c #906F54",
"Y.	c #326F54",
"Z.	c #1D7659",
"`.	c #A87E5F",
" +	c #4D654C",
".+	c #218766",
"++	c #3F4534",
"@+	c #855C46",
"#+	c #0B0806",
"$+	c #634434",
"%+	c #8F634B",
"&+	c #94674D",
"*+	c #77533E",
"=+	c #583D2E",
"-+	c #4A3327",
";+	c #362A1F",
">+	c #1D2C21",
",+	c #936D52",
"'+	c #6C664D",
")+	c #396149",
"!+	c #625741",
"~+	c #271B15",
"{+	c #6F4D3A",
"]+	c #865D46",
"^+	c #674736",
"/+	c #3D2B20",
"(+	c #18100C",
"_+	c #AF795C",
":+	c #A16F54",
"<+	c #956B51",
"[+	c #624534",
"}+	c #845C45",
"|+	c #A37156",
"1+	c #1B130E",
"2+	c #302119",
"3+	c #634534",
"4+	c #39271E",
"5+	c #160F0C",
"6+	c #644634",
"7+	c #9F6F53",
"8+	c #6B4A38",
"9+	c #7D5741",
"0+	c #070503",
"a+	c #38271D",
"b+	c #815944",
"c+	c #AC785A",
"d+	c #7E5842",
"e+	c #8B6049",
"f+	c #B07B5C",
"g+	c #0A0705",
"h+	c #402D22",
"i+	c #A57357",
"j+	c #A77458",
"k+	c #0E0907",
"l+	c #B37C5E",
"m+	c #B57E5F",
"n+	c #624433",
"o+	c #50382A",
"p+	c #261A14",
"q+	c #6C4B39",
"r+	c #53392B",
"s+	c #5E4131",
"t+	c #4D3528",
"u+	c #010000",
"                                                                ",
"                                                                ",
"                                . + @                           ",
"                              # $ % &                           ",
"                            * = - ; > ,                         ",
"                            ' ) ! ~ { ]                         ",
"                          ^ / ( _ : < [ ,                       ",
"                        } | ) 1 2 3 4 5 6                       ",
"                        7 8 9 0 a b c d e f                     ",
"                      g h i h j k l m n o 6                     ",
"                      p q r s   t u _ v m r w                   ",
"                    k x y z A B C D E F F G %                   ",
"                  H E I J K L M N O [ m 4 P Q ^                 ",
"                  R S T U V W X Y Z u `  ...+.@.                ",
"                #.S $.%.&.U *.=.-.;.>.,.b '.).!.~.              ",
"              {.E ].^./.(.-.=.V _.:.<.[.}.|.1.2.p               ",
"              3.r 4.5.  6.7.Y 8.9.0.( a.5 b.c.$ d.e.            ",
"            , Q f.g.      h.-.i.Y j.S k.l.m.n.o.p.q.            ",
"          r.v s.t.u.        v.=.-.w.x.y.z.A.B.C.4 D.E.          ",
"          F.G.[.t H.I.J.w I.K.L.*.M.N.O.P.1 Q.R.z ` S.          ",
"        @ v T.U.V.W.G r q >.,.X.Y.Z.`.2.O.1  +.+++).@+A         ",
"        #+$+%+&+$.*+6 p =+-+^.^.;+>+,+S ) [ '+)+!+}.=+          ",
"          } ~+{+` u ` ]+^+/+(+}      ._+8 :+<+[+}+|+1+          ",
"              * 2+6 ,.p.[._ > 3+4+5+6+x.8 a.7+8+l.9+A           ",
"                  0+a+b+D c++.>.b d+e+o f++.u 3 a./+            ",
"                      g+h+]+i+8 x.O.j+D.8 _+,.z.1 5.            ",
"                          k+' n j+l+m+D.8 x.h P.n+              ",
"                              g o+%+( l+8 l+>.,.p+              ",
"                                  ^ =+m ,.u %+q+/.              ",
"                                    A , r+s+t+H.                ",
"                                          u.u+                  ",
"                                                                "};
