/* XPM */
static char * reginatiny_xpm[] = {
"16 16 95 2",
"  	c None",
". 	c #000000",
"+ 	c #7F4F1F",
"@ 	c #281909",
"# 	c #B36F2C",
"$ 	c #B26F2B",
"% 	c #865321",
"& 	c #442A10",
"* 	c #E08B36",
"= 	c #B9732D",
"- 	c #C27A30",
"; 	c #1A1006",
"> 	c #B6712C",
", 	c #764D1E",
"' 	c #B5702C",
") 	c #7B5320",
"! 	c #67441A",
"~ 	c #DF9E3E",
"{ 	c #8F5923",
"] 	c #C2792F",
"^ 	c #C58935",
"/ 	c #1C1207",
"( 	c #2A1A0A",
"_ 	c #F8B547",
": 	c #382B11",
"< 	c #985F25",
"[ 	c #CA7E31",
"} 	c #B3782F",
"| 	c #71501F",
"1 	c #8D6527",
"2 	c #C38735",
"3 	c #835120",
"4 	c #D08133",
"5 	c #C69038",
"6 	c #4F3314",
"7 	c #F9B045",
"8 	c #180F06",
"9 	c #6C431A",
"0 	c #DD8936",
"a 	c #8B5622",
"b 	c #BA7F32",
"c 	c #38280F",
"d 	c #C18A36",
"e 	c #714C1E",
"f 	c #533414",
"g 	c #E78F38",
"h 	c #BF772F",
"i 	c #533515",
"j 	c #C68D37",
"k 	c #825621",
"l 	c #CC8A36",
"m 	c #422D11",
"n 	c #412D11",
"o 	c #4B3515",
"p 	c #554119",
"q 	c #523D18",
"r 	c #EA9239",
"s 	c #DA8735",
"t 	c #38230D",
"u 	c #DD9038",
"v 	c #784A1D",
"w 	c #CC8635",
"x 	c #C78F38",
"y 	c #94722C",
"z 	c #9E752E",
"A 	c #F1963B",
"B 	c #DF8B36",
"C 	c #7C4D1E",
"D 	c #BD752E",
"E 	c #33200C",
"F 	c #4D3013",
"G 	c #BA742D",
"H 	c #CB7E31",
"I 	c #B06D2B",
"J 	c #170E05",
"K 	c #BB742E",
"L 	c #E58F38",
"M 	c #9F6327",
"N 	c #B8722D",
"O 	c #0E0903",
"P 	c #694119",
"Q 	c #D38333",
"R 	c #E79038",
"S 	c #C87C31",
"T 	c #F79A3C",
"U 	c #DB8835",
"V 	c #7D4E1E",
"W 	c #F4983B",
"X 	c #311F0C",
"Y 	c #3B250E",
"Z 	c #A36528",
"` 	c #D48433",
" .	c #0D0803",
"..	c #1E1307",
"+.	c #080501",
"              . + @             ",
"            . # $ % .           ",
"          . & * = - ;           ",
"          . > , ' # ) .         ",
"        . ! ~ . { ] ^ /         ",
"      . ( _ : . < [ } | .       ",
"      . 1 2 . . 3 4 % 5 .       ",
"    . 6 7 8 . . 9 0 a b c .     ",
"    . d e . . . f g h i j .     ",
"  . k l m n o p q r s t u c .   ",
"  . v = w x y z z A B C D E .   ",
"    . F G H I f J K L M N J     ",
"      . O P Q R S T A U V .     ",
"          . J % B T W s X       ",
"              . Y Z ` I .       ",
"                .  ...+.        "};
