/* XPM */
static char * reginatiny_xpm[] = {
"16 16 79 1",
" 	c None",
".	c #080401",
"+	c #8C491E",
"@	c #8C451C",
"#	c #3D220F",
"$	c #DD923E",
"%	c #C9722F",
"&	c #2D1A0B",
"*	c #0B0602",
"=	c #D99241",
"-	c #6D3C1A",
";	c #CE7A32",
">	c #AE6A2F",
",	c #925627",
"'	c #A0652F",
")	c #0C0703",
"!	c #D78739",
"~	c #DF9542",
"{	c #311D0D",
"]	c #321D0D",
"^	c #EBB25B",
"/	c #050301",
"(	c #010100",
"_	c #DE943F",
":	c #CC7A32",
"<	c #BC7B3B",
"[	c #E0A44F",
"}	c #311E0D",
"|	c #000000",
"1	c #CE8438",
"2	c #B4672C",
"3	c #D18F42",
"4	c #2E1C0D",
"5	c #7F4D22",
"6	c #B16A2E",
"7	c #DB8F3D",
"8	c #3F240F",
"9	c #B97B39",
"0	c #221308",
"a	c #E7AA52",
"b	c #160D05",
"c	c #0E0803",
"d	c #120A04",
"e	c #A9652D",
"f	c #E09741",
"g	c #3E210D",
"h	c #D79242",
"i	c #25160A",
"j	c #46230E",
"k	c #C87330",
"l	c #DC913F",
"m	c #D18A41",
"n	c #A46A33",
"o	c #9E6732",
"p	c #C6843C",
"q	c #E49E46",
"r	c #A05624",
"s	c #3E220F",
"t	c #1A0C05",
"u	c #944F21",
"v	c #DA8D3C",
"w	c #B6672A",
"x	c #4E260F",
"y	c #6A3B19",
"z	c #E7A349",
"A	c #CC7A33",
"B	c #CC7B35",
"C	c #040201",
"D	c #231207",
"E	c #A95F28",
"F	c #E9A64B",
"G	c #DF9541",
"H	c #73411C",
"I	c #2D1609",
"J	c #B86B2E",
"K	c #DC8F3D",
"L	c #201207",
"M	c #2A1408",
"N	c #251107",
"                ",
"        .       ",
"       +@       ",
"      #$%&      ",
"     *=-;>      ",
"     ,')!~{     ",
"    ]^/(_:<     ",
"   /[}||1234    ",
"   5'|||6789    ",
"  0abcdbefghi   ",
"  jklmnopqrms   ",
"   tuvwxyzABC   ",
"     DEqqFGH    ",
"       IJqKL    ",
"         MN     ",
"                "};
