/* XPM */
static char * reginatiny_lo_xpm[] = {
"16 16 25 1",
" 	c None",
".	c #040302",
"+	c #39210E",
"@	c #70401C",
"#	c #AA6A30",
"$	c #C6863E",
"%	c #7E4E22",
"&	c #E6A64D",
"*	c #261408",
"=	c #9A5626",
"-	c #6A3A1A",
";	c #E39A44",
">	c #B66A2E",
",	c #170E06",
"'	c #B6662C",
")	c #CB7833",
"!	c #4A240E",
"~	c #A4642E",
"{	c #D2863A",
"]	c #D88F40",
"^	c #0F0903",
"/	c #BA7A3A",
"(	c #914A1F",
"_	c #EAB25A",
":	c #2E1C0C",
"                ",
"        ^       ",
"       ((       ",
"      +{):      ",
"     ^;-)#      ",
"     =~^{;:     ",
"    :_..])/     ",
"   .&:..{>]:    ",
"   %~...#]+/    ",
"  *&^^^,~;+;*   ",
"  !)]{#~$;={+   ",
"   ,(]'!-&))    ",
"     *~;;&;@    ",
"       :>&]*    ",
"         **     ",
"                "};
