/* XPM */
static char * regina_lo_xpm[] = {
"32 32 25 1",
" 	c None",
".	c #030303",
"+	c #2D1F18",
"@	c #1F7E5F",
"#	c #5F4333",
"$	c #885E48",
"%	c #1E7458",
"&	c #C18665",
"*	c #175842",
"=	c #39785C",
"-	c #996B51",
";	c #707B5D",
">	c #43664E",
",	c #163B2D",
"'	c #AE795C",
")	c #73634A",
"!	c #1C1913",
"~	c #3C2E22",
"{	c #724F3C",
"]	c #D99874",
"^	c #140E0B",
"/	c #A47356",
"(	c #50372A",
"_	c #8E7A5E",
":	c #3E4636",
"                                ",
"                                ",
"                +~^             ",
"               !${(             ",
"              .$-$$^            ",
"              ~'-${{            ",
"             ^//-$$-!           ",
"            .{'-#$$-{           ",
"            ~'&(~-$-&^          ",
"           ^/&-.+-$$&{          ",
"           {&]! ^/-$-]^         ",
"          +]]#..!/-$$&{         ",
"         .-'),*%@/--${&^        ",
"         #'>@@@@@_/-{~'{        ",
"        +'$,%@%@@;//$+{&^       ",
"       .-'~.*@@@@;//-~('{       ",
"       (]-. ^%@@@;//->+$&^      ",
"      !&&~   ,@@@=''-;,(/{      ",
"     .$]{.    *@@=&//-@+$'^     ",
"     ~&/^^^^^^!%@@''/-%*#-#     ",
"    ^$${-']]&/--%%'''->@:{$.    ",
"    ^#$-${{##(~~+,-''/)>{-(     ",
"     .+{-/-$#~^.  {''/-#)/!     ",
"       .+{///-$#~^#''//{-{.     ",
"         .~{//'/-{-''/-$'~      ",
"           ^~$/'''/&''//-.      ",
"             .($/''&''-/#       ",
"               ^($''''//+       ",
"                 ^#--/$#.       ",
"                  .^(#(^        ",
"                     ..         ",
"                                "};
