/* XPM */
static char * smallicon_xpm[] = {
"32 32 253 2",
"  	c None",
". 	c #000000",
"+ 	c #2E2018",
"@ 	c #664635",
"# 	c #795440",
"$ 	c #5C4030",
"% 	c #402C21",
"& 	c #92654C",
"* 	c #815943",
"= 	c #7D5741",
"- 	c #150E0B",
"; 	c #92664D",
"> 	c #A27055",
", 	c #845C45",
"' 	c #5F4232",
") 	c #573C2E",
"! 	c #AF795C",
"~ 	c #A17054",
"{ 	c #865D46",
"] 	c #7B5641",
"^ 	c #96684F",
"/ 	c #120D09",
"( 	c #201611",
"_ 	c #AD785B",
": 	c #A87558",
"< 	c #815A44",
"[ 	c #885E47",
"} 	c #855C45",
"| 	c #95684E",
"1 	c #6C4B39",
"2 	c #90644B",
"3 	c #B07A5C",
"4 	c #AA7659",
"5 	c #533A2C",
"6 	c #8C6149",
"7 	c #B88060",
"8 	c #241913",
"9 	c #412D22",
"0 	c #B27B5D",
"a 	c #BF8464",
"b 	c #624433",
"c 	c #130D09",
"d 	c #996A50",
"e 	c #91654C",
"f 	c #9C6C52",
"g 	c #674736",
"h 	c #0F0A08",
"i 	c #A97559",
"j 	c #B57E5F",
"k 	c #B77F60",
"l 	c #090605",
"m 	c #9E6E53",
"n 	c #7D5641",
"o 	c #9B6C51",
"p 	c #D89671",
"q 	c #593D2E",
"r 	c #C08564",
"s 	c #E09B75",
"t 	c #573C2D",
"u 	c #A47256",
"v 	c #986950",
"w 	c #875E47",
"x 	c #8E624A",
"y 	c #D69470",
"z 	c #120C09",
"A 	c #B98161",
"B 	c #EBA37B",
"C 	c #825A44",
"D 	c #90644C",
"E 	c #9E6D53",
"F 	c #A67357",
"G 	c #D2926E",
"H 	c #A17E5F",
"I 	c #1B281E",
"J 	c #0D3527",
"K 	c #0F3E2F",
"L 	c #186149",
"M 	c #8D7C5E",
"N 	c #9A6B51",
"O 	c #97694F",
"P 	c #98694F",
"Q 	c #7F5843",
"R 	c #C88B69",
"S 	c #563C2D",
"T 	c #453024",
"U 	c #B37C5E",
"V 	c #36624A",
"W 	c #1A6A50",
"X 	c #1D7759",
"Y 	c #208262",
"Z 	c #208564",
"` 	c #218866",
" .	c #6F7E5F",
"..	c #9F6E53",
"+.	c #9D6D52",
"@.	c #94674E",
"#.	c #634534",
"$.	c #93664D",
"%.	c #B47D5E",
"&.	c #0F0B08",
"*.	c #A06F54",
"=.	c #434F3B",
"-.	c #1D7659",
";.	c #1D795B",
">.	c #1E7B5D",
",.	c #1E7D5E",
"'.	c #1F7F5F",
").	c #617E5F",
"!.	c #A17055",
"~.	c #39281E",
"{.	c #644534",
"].	c #C18665",
"^.	c #583D2E",
"/.	c #6B4A38",
"(.	c #0D130E",
"_.	c #1A6B51",
":.	c #1D785A",
"<.	c #1E7A5C",
"[.	c #1E7C5D",
"}.	c #1F7E5F",
"|.	c #507E5F",
"1.	c #A77457",
"2.	c #3B3F30",
"3.	c #51382B",
"4.	c #C78A69",
"5.	c #281B15",
"6.	c #0A2B20",
"7.	c #208463",
"8.	c #1E7B5C",
"9.	c #517D5E",
"0.	c #A67457",
"a.	c #986A50",
"b.	c #70644C",
"c.	c #19110D",
"d.	c #704E3B",
"e.	c #2A1D16",
"f.	c #7B5540",
"g.	c #DA9772",
"h.	c #18634A",
"i.	c #1F8161",
"j.	c #418161",
"k.	c #A77458",
"l.	c #114534",
"m.	c #483225",
"n.	c #A57256",
"o.	c #8A5F48",
"p.	c #463125",
"q.	c #CE8F6C",
"r.	c #BC8262",
"s.	c #251A13",
"t.	c #030D0A",
"u.	c #1F7D5E",
"v.	c #1F7F60",
"w.	c #B37D5E",
"x.	c #9A6B50",
"y.	c #1F2119",
"z.	c #855C46",
"A.	c #17100C",
"B.	c #D1916D",
"C.	c #4C3427",
"D.	c #0A291E",
"E.	c #A27C5E",
"F.	c #4B795B",
"G.	c #124B38",
"H.	c #5E4131",
"I.	c #6D4B39",
"J.	c #D0906D",
"K.	c #0D0907",
"L.	c #0C0806",
"M.	c #161A14",
"N.	c #1A6B50",
"O.	c #847E5F",
"P.	c #AC775A",
"Q.	c #95674E",
"R.	c #687256",
"S.	c #218766",
"T.	c #383729",
"U.	c #79543F",
"V.	c #6F4D3A",
"W.	c #A37155",
"X.	c #BE8464",
"Y.	c #D3926F",
"Z.	c #CC8E6B",
"`.	c #9F6F54",
" +	c #8C6C52",
".+	c #2B7155",
"++	c #877F60",
"@+	c #AB775A",
"#+	c #AE795B",
"$+	c #826A50",
"%+	c #1C7457",
"&+	c #2E7659",
"*+	c #714E3B",
"=+	c #38261D",
"-+	c #1C130F",
";+	c #7E5842",
">+	c #885F47",
",+	c #8F634B",
"'+	c #6D4C39",
")+	c #704D3A",
"!+	c #4F4030",
"~+	c #4F5540",
"{+	c #71634A",
"]+	c #AF7A5C",
"^+	c #A37156",
"/+	c #3A7E5F",
"(+	c #73503C",
"_+	c #241912",
":+	c #614333",
"<+	c #895F48",
"[+	c #36251C",
"}+	c #150F0B",
"|+	c #0A0705",
"1+	c #3E2B20",
"2+	c #B27C5D",
"3+	c #A97558",
"4+	c #605943",
"5+	c #8E634B",
"6+	c #261A14",
"7+	c #9F6F53",
"8+	c #7F5842",
"9+	c #604232",
"0+	c #34241B",
"a+	c #130D0A",
"b+	c #3D2A20",
"c+	c #AD785A",
"d+	c #6E4C39",
"e+	c #473125",
"f+	c #39271E",
"g+	c #AC785A",
"h+	c #74503D",
"i+	c #493326",
"j+	c #B87F60",
"k+	c #221812",
"l+	c #0B0806",
"m+	c #422E23",
"n+	c #B17B5D",
"o+	c #A57357",
"p+	c #835B45",
"q+	c #B98061",
"r+	c #A57356",
"s+	c #463024",
"t+	c #2B1E16",
"u+	c #B67F60",
"v+	c #100B08",
"w+	c #2B1E17",
"x+	c #76523E",
"y+	c #B47D5F",
"z+	c #96684E",
"A+	c #77533E",
"B+	c #1E140F",
"C+	c #4B3427",
"D+	c #060403",
"                                . + .                           ",
"                              . @ # $ .                         ",
"                            . % & * = -                         ",
"                            . ; > , # ' .                       ",
"                          . ) ! ~ { ] ^ /                       ",
"                        . ( _ : < [ } | 1 .                     ",
"                        . 2 3 4 5 & 6 6 7 8                     ",
"                      . 9 0 a b c d e , f g .                   ",
"                      h i j k l c m | n o p .                   ",
"                    . q r s t . . u v w x y 5 .                 ",
"                    z A B 6 . . . C d D E F 4 .                 ",
"                  . , G H I J K L M N O P Q R S .               ",
"                . T U V W X Y Z `  ...+.@.#.$.%..               ",
"                &.w *.=.-.;.>.,.'.).~ !.e ~.{.].+ .             ",
"              . ^._ /.(._.:.<.[.}.|.1.u & 2.3.u { .             ",
"            . ( 4.m 5.. 6.Y 7.;.8.9.4 0.a.b.c.d.].e..           ",
"            . f.g.6 . . . h.i.Y 7.j.3 k...f l.m.n.o..           ",
"          . p.q.r.s.. . . t.u.v.i.Y w.k.n.x.[.y.z.].A..         ",
"          . %.B.C.. . . . . D.[.u.v.E.F i O F.G.H.u I..         ",
"        . ^.J.> K.. . L.l l M.N.<.[.O.: P.Q.R.S.T.U.^ .         ",
"        h N } V.W.X.Y.Z.j `.$. +.+-.++@+#++.$+%+&+*+[ =+.       ",
"        -+z.D x C ;+>+,+P { '+)+!+~+{+#+]+^+!.L /+(+~ _+.       ",
"          - :+& *.x.<+V.[+}+|+. . . 1+2+3 3+m 4+1 5+C .         ",
"            . 6+d.o 1.7+$.8+9+0+a+. b+%.]+c++.d+U.*.e+.         ",
"              . . f+C ..g+k.+.x h+^.i+j+#+3 O ,+^ F k+.         ",
"                  . l+m+2 1.n+! o+N p+q+c+0 ..: W.'+.           ",
"                      . -+$ v P.%.U _ X.#+U n.r+u s+.           ",
"                        . . t+(+*.]+k u+3 %.4 ~ W.v+            ",
"                            . . w+x+~ 2+n+y+_ z+A+.             ",
"                                . z i+[ ..m N { B+.             ",
"                                  . . - C+1 {.T .               ",
"                                      . . D+. .                 "};
