<?xml version="1.0" encoding="utf-8"?>
<!-- Generator: Adobe Illustrator 15.0.2, SVG Export Plug-In . SVG Version: 6.00 Build 0)  -->
<!DOCTYPE svg PUBLIC "-//W3C//DTD SVG 1.1//EN" "http://www.w3.org/Graphics/SVG/1.1/DTD/svg11.dtd">
<svg version="1.1" id="Layer_1" xmlns="http://www.w3.org/2000/svg" xmlns:xlink="http://www.w3.org/1999/xlink" x="0px" y="0px"
	 width="254px" height="254px" viewBox="0 0 254 254" enable-background="new 0 0 254 254" xml:space="preserve">
<polyline fill="#C3A8F0" points="64.282,121.531 97.333,166.607 161.709,179.738 156.727,144.716 140.36,136.786 124.958,119 
	99,119 88.757,106.477 "/>
<path fill="#C3A8F0" stroke="#143E51" stroke-width="18" stroke-linecap="round" stroke-miterlimit="10" d="M89.015,106.359
	C100,129,107.06,111.667,121.667,117.333C148.52,127.75,132,147,156.82,144.692"/>
<path fill="#C3A8F0" stroke="#143E51" stroke-width="18" stroke-linecap="round" stroke-miterlimit="10" d="M64.282,121.409
	c24.733,45.138-30.06,33.777-21.282,76.925c7,34.409,35.037,43.534,69.996,37c35.67-6.667,3.338-50.667,48.713-55.626"/>
<path fill="#84E5F1" stroke="#143E51" stroke-width="18" stroke-linecap="round" stroke-miterlimit="10" d="M64.116,121.409
	C44.333,78.667,34.667,115.333,17,88.667c-8.39-12.663-12-45,17-58.333c25.215-11.593,52.838-5.436,57.333,8.333
	c10.667,32.667-20,32.667-2.562,67.839"/>
<line fill="none" stroke="#9C2B3D" stroke-width="18" stroke-linecap="round" stroke-miterlimit="10" x1="36.667" y1="138" x2="127" y2="83.334"/>
<path fill="#84F187" stroke="#145127" stroke-width="18" stroke-linecap="round" stroke-miterlimit="10" d="M156.82,144.692
	C195.667,136.334,172,97,219.667,105.667c29.318,5.331,29.818,97.998-0.334,97.999c-37.667,0.001-13.333-32.332-57.624-23.958"/>
<line fill="none" stroke="#9C2B3D" stroke-width="18" stroke-linecap="round" stroke-miterlimit="10" x1="151" y1="104.428" x2="168.667" y2="228.667"/>
</svg>
