<?xml version="1.0" encoding="utf-8"?>
<!-- Generator: Adobe Illustrator 15.0.2, SVG Export Plug-In . SVG Version: 6.00 Build 0)  -->
<!DOCTYPE svg PUBLIC "-//W3C//DTD SVG 1.1//EN" "http://www.w3.org/Graphics/SVG/1.1/DTD/svg11.dtd">
<svg version="1.1" id="Layer_1" xmlns="http://www.w3.org/2000/svg" xmlns:xlink="http://www.w3.org/1999/xlink" x="0px" y="0px"
	 width="248.438px" height="248.438px" viewBox="0 0 248.438 248.438" enable-background="new 0 0 248.438 248.438"
	 xml:space="preserve">
<path fill="#86E8F2" stroke="#144051" stroke-width="8" stroke-linecap="round" stroke-miterlimit="10" d="M236.677,197.437
	c3.149-8.658,6.731-53.098-32.825-58.605c-26.985-3.757-37.008,11.601-58.368-14.71c-26.648-32.824-4.613-20.236,14.057-49.373
	c11.462-17.889-26.067-51.78-83.09-50.057C41.474,25.749,2.738,36.82,11.234,78.402c3.335,16.322,32.733,34.375,57.835,32.002
	c20.737-1.959,26.287-4.374,46.875,21.226c22.396,27.847-10.79,31.262-9.224,50.498c2.043,25.085,32.001,45.83,89.771,46.025
	C224.924,228.249,231.755,210.966,236.677,197.437z"/>
<path fill="#FFFFFF" stroke="#0071BC" stroke-width="8" stroke-linecap="round" stroke-miterlimit="10" d="M39.375,68.038"/>
<line fill="none" stroke="#9E005D" stroke-width="8" stroke-linecap="round" stroke-miterlimit="10" x1="68.266" y1="153.902" x2="192.978" y2="103.784"/>
<path fill="#FFFFFF" stroke="#144051" stroke-width="8" stroke-linecap="round" stroke-miterlimit="10" d="M50.192,68.924
	c-0.92,11.577,29.046,13.635,40.648,14.14c9.256,0.402,29.5-3.989,30.298-14.825c0.706-9.606-18.541-13.861-36.307-13.886
	C74.499,54.338,51.237,55.781,50.192,68.924z"/>
<path fill="#FFFFFF" stroke="#144051" stroke-width="8" stroke-linecap="round" stroke-miterlimit="10" d="M145.415,187.222
	c1.485,9.271,28.473,10.096,37.86,9.895c15.181-0.324,22.799-3.755,23.362-15.729c0.443-9.419-8.683-17.504-40.491-13.491
	C149.904,169.947,144.175,179.49,145.415,187.222z"/>
</svg>
